<svg width="512" height="512" version="1.1" viewBox="0 0 512 512" xmlns="http://www.w3.org/2000/svg" xmlns:xlink="http://www.w3.org/1999/xlink">
  <defs>
    <linearGradient id="linearGradient22708">
      <stop stop-color="#21facf" offset="0"/>
      <stop stop-color="#0970ef" offset="1"/>
    </linearGradient>
    <linearGradient id="linearGradient6949" x1="68.454" x2="198.59" y1="246.73" y2="96.35" gradientTransform="translate(-5.754,-56.594)" gradientUnits="userSpaceOnUse">
      <stop stop-color="#72004e" offset="0"/>
      <stop stop-color="#0015b1" offset="1"/>
    </linearGradient>
    <linearGradient id="linearGradient918" x1="39.468" x2="154.99" y1="204.22" y2="124.47" gradientUnits="userSpaceOnUse" xlink:href="#linearGradient22708"/>
  </defs>
  <g transform="matrix(2.473 0 0 2.473 -4.8978 -4.8812)">
    <path d="m105.5 24.43c-48.394-1.5e-5 -87.625 39.231-87.625 87.625 0.0174 20.443 7.1818 40.236 20.253 55.954 0.2523-0.42224 0.53629-0.82423 0.85783-1.2061 4.892-5.8104 10.427-10.214 18.946-19.252 3.7871-4.0176 6.3412 15.63 7.6435 14.309 1.3243-1.3439 0.1473-19.001 3.5062-24.674 6.0563-10.228 10.733-18.067 22.336-30.607 2.8443-3.0741 5.5333 11.223 6.8063 9.2361 1.1421-1.7823-0.26941-18.641 1.5663-23.773 4.8819-13.647 3.3631-13.21 15.582-31.378 2.098-3.1195 6.496 7.9402 7.2151 6.3268 0.70126-1.5734-0.84173-11.131-0.67179-15.805 0.37161-3.1498 3.6036-13.059 7.7055-23.367-7.8432-2.2472-15.962-3.3881-24.12-3.3895zm43.142 11.356c5.5662 61.595-18.426 120.7-62.796 161.65 6.446 1.4857 13.04 2.2367 19.655 2.2386 48.394 1e-5 87.625-39.231 87.625-87.625-3.1e-4 -31.581-16.995-60.719-44.484-76.268z" fill="url(#linearGradient6949)"/>
    <path d="m105.5 24.43c-48.394-1.5e-5 -87.625 39.231-87.625 87.625 0.0174 20.443 7.1818 40.236 20.253 55.954 0.2523-0.42224 0.53629-0.82423 0.85783-1.2061 4.892-5.8104 10.427-10.214 18.946-19.252 3.7871-4.0176 6.3412 15.63 7.6435 14.309 1.3243-1.3439 0.1473-19.001 3.5062-24.674 6.0563-10.228 10.733-18.067 22.336-30.607 2.8443-3.0741 5.5333 11.223 6.8063 9.2361 1.1421-1.7823-0.26941-18.641 1.5663-23.773 4.8819-13.647 3.3631-13.21 15.582-31.378 2.098-3.1195 6.496 7.9402 7.2151 6.3268 0.70126-1.5734-0.84173-11.131-0.67179-15.805 0.37161-3.1498 3.6036-13.059 7.7055-23.367-7.8432-2.2472-15.962-3.3881-24.12-3.3895zm43.142 11.356c5.5662 61.595-18.426 120.7-62.796 161.65 6.446 1.4857 13.04 2.2367 19.655 2.2386 48.394 1e-5 87.625-39.231 87.625-87.625-3.1e-4 -31.581-16.995-60.719-44.484-76.268z" fill="url(#linearGradient918)"/>
  </g>
</svg>
